<?xml version="1.0" standalone="no"?>
<!DOCTYPE svg PUBLIC "-//W3C//DTD SVG 20010904//EN"
 "http://www.w3.org/TR/2001/REC-SVG-20010904/DTD/svg10.dtd">
<svg version="1.0" xmlns="http://www.w3.org/2000/svg"
 width="1280.000000pt" height="720.000000pt" viewBox="0 0 1280.000000 720.000000"
 preserveAspectRatio="xMidYMid meet">

<g transform="translate(0.000000,720.000000) scale(0.100000,-0.100000)"
fill="#000000" stroke="none">
<path d="M6190 6373 c-539 -48 -942 -184 -1357 -459 -674 -446 -1119 -1171
-1224 -1994 -17 -132 -17 -512 0 -640 54 -406 173 -765 356 -1075 412 -696
1067 -1168 1845 -1330 164 -34 291 -47 505 -50 299 -5 472 14 740 82 368 93
746 283 1055 529 109 87 327 305 414 414 226 283 408 633 506 975 79 273 105
465 104 780 0 206 -5 276 -23 395 -153 1003 -798 1814 -1741 2190 -218 87
-407 132 -730 175 -51 7 -396 13 -450 8z m484 -92 c509 -69 922 -235 1314
-527 229 -171 499 -465 659 -719 453 -718 538 -1630 226 -2425 -182 -464 -496
-874 -898 -1174 -595 -445 -1334 -621 -2078 -495 -251 43 -471 116 -723 239
-645 317 -1148 897 -1369 1580 -92 285 -129 521 -129 835 -1 455 87 828 290
1226 134 264 281 466 494 680 470 472 1029 729 1720 792 72 7 418 -2 494 -12z"/>
<path d="M5815 6035 c-27 -8 -54 -14 -58 -15 -22 -1 -107 -96 -127 -143 -29
-66 -31 -169 -5 -246 75 -227 408 -241 508 -22 32 68 31 206 -2 278 -55 123
-188 185 -316 148z m130 -99 c19 -8 46 -32 61 -56 24 -36 28 -54 32 -128 4
-96 -11 -138 -60 -175 -28 -21 -94 -33 -132 -23 -48 12 -95 64 -112 124 -50
170 70 317 211 258z"/>
<path d="M6719 6012 c-96 -50 -149 -149 -149 -277 0 -177 129 -298 300 -282
155 14 250 132 250 310 0 90 -16 137 -66 196 -70 83 -229 109 -335 53z m176
-73 c56 -15 83 -44 101 -107 27 -93 -2 -212 -63 -256 -38 -28 -119 -32 -163
-9 -96 50 -113 248 -28 330 53 51 86 60 153 42z"/>
<path d="M6252 5700 l0 -40 109 0 109 0 0 40 0 40 -109 0 -110 0 1 -40z"/>
<path d="M6187 5189 c-859 -99 -1492 -866 -1419 -1717 47 -537 340 -997 807
-1266 487 -280 1122 -272 1608 20 252 152 479 397 611 662 102 203 166 475
166 702 -1 614 -345 1172 -889 1440 -277 137 -592 193 -884 159z m358 -84
c291 -38 522 -134 750 -311 470 -364 684 -983 539 -1556 -72 -285 -198 -509
-400 -712 -273 -273 -624 -427 -1010 -443 -276 -12 -570 57 -800 188 -371 212
-632 551 -735 953 -94 370 -47 749 135 1092 292 549 910 869 1521 789z"/>
<path d="M6295 4549 c-347 -27 -606 -260 -680 -612 -51 -239 -12 -502 100
-683 55 -87 171 -200 256 -247 35 -20 105 -48 154 -62 76 -23 110 -27 220 -28
163 -1 249 17 374 79 72 35 110 63 166 118 179 176 254 385 242 676 -7 159
-24 233 -82 355 -139 289 -403 431 -750 404z m215 -284 c194 -69 292 -246 293
-530 1 -148 -13 -217 -65 -322 -64 -133 -158 -202 -303 -225 -91 -14 -191 -1
-262 33 -106 51 -208 196 -239 341 -18 85 -17 267 1 347 46 194 181 339 345
370 63 12 177 5 230 -14z"/>
<path d="M4895 1866 c-60 -27 -115 -110 -115 -173 0 -78 84 -163 163 -163 99
0 187 91 187 193 0 110 -131 189 -235 143z m124 -60 c64 -34 60 -117 -9 -180
-49 -44 -86 -47 -129 -10 -24 20 -31 34 -31 62 0 46 30 96 72 122 39 24 60 25
97 6z"/>
<path d="M7769 1801 c-16 -16 -29 -39 -29 -51 0 -19 -2 -21 -16 -10 -13 11
-19 10 -36 -7 -24 -24 -27 -17 66 -131 32 -40 61 -72 65 -72 4 0 17 7 29 16
l23 16 -51 63 c-50 63 -61 100 -38 123 23 23 47 11 107 -55 l60 -68 22 22 22
22 -58 71 c-83 101 -114 113 -166 61z"/>
<path d="M7521 1756 c-21 -26 -9 -51 24 -51 27 0 30 3 30 30 0 23 -5 31 -21
33 -11 2 -26 -4 -33 -12z"/>
<path d="M7588 1666 c-10 -7 -18 -16 -18 -20 0 -10 120 -185 131 -191 11 -7
49 17 49 30 -1 14 -123 188 -135 191 -6 2 -18 -3 -27 -10z"/>
<path d="M5067 1489 c-83 -141 -87 -152 -70 -165 30 -23 42 -16 74 42 l32 55
18 -30 c21 -35 69 -52 114 -40 63 18 119 120 96 177 -16 38 -64 66 -101 58
-24 -4 -28 -2 -23 11 6 16 -20 43 -41 43 -6 -1 -51 -68 -99 -151z m185 44 c24
-21 23 -54 -3 -87 -33 -41 -56 -50 -85 -31 -32 21 -32 64 2 104 29 34 58 39
86 14z"/>
<path d="M5447 1593 c-4 -3 -7 -17 -7 -29 0 -17 7 -25 24 -30 30 -7 46 1 46
25 0 31 -43 55 -63 34z"/>
<path d="M7450 1583 c-31 -12 -80 -56 -80 -72 1 -40 16 -43 52 -7 39 39 59 44
77 22 9 -11 4 -20 -27 -45 -55 -43 -69 -81 -46 -121 11 -17 29 -33 42 -37 35
-8 83 16 98 51 7 17 13 25 14 19 0 -17 22 -16 45 1 17 13 17 16 -20 82 -59
106 -94 130 -155 107z m94 -129 c10 -25 7 -42 -10 -58 -22 -23 -51 -20 -60 6
-5 16 0 27 20 45 32 27 42 29 50 7z"/>
<path d="M7218 1530 c-24 -19 -26 -24 -16 -46 10 -22 9 -27 -5 -35 -24 -14 -4
-53 23 -44 15 5 24 -7 50 -63 17 -37 40 -74 51 -81 23 -14 64 -8 92 14 15 11
17 17 7 34 -9 17 -14 19 -31 11 -26 -15 -32 -9 -64 57 -25 54 -26 58 -9 70 10
7 21 13 26 13 4 0 3 11 -4 25 -9 19 -14 22 -29 15 -27 -15 -34 -12 -50 21
l-14 30 -27 -21z"/>
<path d="M5356 1391 l-55 -109 30 -12 c16 -7 31 -11 34 -9 2 3 26 52 53 111
l50 106 -24 11 c-14 6 -27 11 -29 11 -3 0 -29 -49 -59 -109z"/>
<path d="M6930 1479 c-13 -6 -26 -12 -28 -14 -3 -2 21 -80 53 -174 l58 -169
28 10 c16 5 29 16 29 24 0 9 6 11 22 5 48 -18 110 22 121 77 6 31 -4 86 -22
119 -32 60 -110 72 -158 23 l-29 -30 -23 70 c-12 39 -23 70 -24 69 -1 0 -13
-5 -27 -10z m194 -148 c28 -31 32 -85 7 -110 -26 -26 -53 -27 -75 -2 -23 25
-33 96 -16 116 17 21 63 19 84 -4z"/>
<path d="M5800 1455 c-6 -8 -9 -23 -5 -35 8 -24 47 -27 65 -5 10 13 10 19 -5
35 -21 24 -38 25 -55 5z"/>
<path d="M5475 1348 c-21 -57 -40 -108 -42 -114 -2 -7 10 -16 27 -22 26 -10
32 -9 37 6 25 71 55 137 66 144 22 14 56 8 67 -12 8 -16 4 -38 -19 -104 l-29
-85 30 -6 c16 -4 31 -5 32 -3 15 18 60 161 59 188 -2 48 -34 73 -90 68 -29 -2
-42 1 -39 8 4 10 -33 34 -53 34 -4 0 -25 -46 -46 -102z"/>
<path d="M6681 1398 c-64 -33 -84 -66 -89 -141 -5 -82 25 -141 88 -174 54 -29
94 -29 150 0 59 30 82 64 88 132 13 153 -112 249 -237 183z m127 -60 c70 -75
51 -198 -33 -214 -65 -12 -115 47 -115 136 0 83 96 133 148 78z"/>
<path d="M5742 1243 c-17 -64 -30 -118 -29 -119 1 -2 15 -4 31 -6 30 -3 30 -3
62 110 l31 113 -24 10 c-13 5 -28 9 -32 9 -4 0 -22 -53 -39 -117z"/>
<path d="M5913 1300 c-121 -73 -57 -253 84 -237 75 8 124 80 109 159 -15 81
-120 123 -193 78z m115 -52 c6 -6 12 -25 12 -44 0 -74 -45 -113 -95 -80 -20
13 -25 25 -25 61 0 69 57 103 108 63z"/>
<path d="M6166 1279 c-3 -8 -6 -65 -8 -127 l-3 -112 31 0 31 0 5 82 c4 68 8
84 27 99 22 18 49 16 63 -5 4 -6 8 -50 8 -98 l0 -88 29 0 c29 0 30 1 36 66 10
84 1 142 -23 166 -25 25 -86 26 -113 2 -17 -16 -19 -16 -19 -1 0 10 -6 17 -14
17 -8 0 -21 3 -30 6 -9 3 -18 0 -20 -7z"/>
</g>
</svg>
